<mxfile host="app.diagrams.net" modified="2022-01-04T16:40:23.445Z" agent="5.0 (Macintosh; Intel Mac OS X 10_15_7) AppleWebKit/537.36 (KHTML, like Gecko) Chrome/96.0.4664.110 Safari/537.36" etag="CGvB2i_Wetvxhyha0Gj5" version="16.1.0" type="github">
  <diagram id="vXGA9uWDM5HRdBymqLsh" name="Page-1">
    <mxGraphModel dx="941" dy="-181" grid="1" gridSize="10" guides="1" tooltips="1" connect="1" arrows="1" fold="1" page="1" pageScale="1" pageWidth="1169" pageHeight="827" math="0" shadow="0">
      <root>
        <mxCell id="0" />
        <mxCell id="1" parent="0" />
        <mxCell id="qYEso5ZYe-UhrBeJMv3y-733" value="" style="rounded=0;whiteSpace=wrap;html=1;fillColor=#dae8fc;strokeColor=#6c8ebf;opacity=50;" vertex="1" parent="1">
          <mxGeometry x="75" y="1155" width="110" height="90" as="geometry" />
        </mxCell>
        <mxCell id="qYEso5ZYe-UhrBeJMv3y-732" value="" style="rounded=0;whiteSpace=wrap;html=1;fillColor=#dae8fc;strokeColor=#6c8ebf;opacity=50;" vertex="1" parent="1">
          <mxGeometry x="775" y="1255" width="50" height="170" as="geometry" />
        </mxCell>
        <mxCell id="qYEso5ZYe-UhrBeJMv3y-734" style="edgeStyle=orthogonalEdgeStyle;curved=1;rounded=0;orthogonalLoop=1;jettySize=auto;html=1;entryX=0;entryY=0.5;entryDx=0;entryDy=0;fontColor=#000000;strokeColor=#6C8EBF;exitX=0;exitY=0.25;exitDx=0;exitDy=0;" edge="1" parent="1" source="qYEso5ZYe-UhrBeJMv3y-643" target="qYEso5ZYe-UhrBeJMv3y-726">
          <mxGeometry relative="1" as="geometry" />
        </mxCell>
        <mxCell id="qYEso5ZYe-UhrBeJMv3y-727" value="" style="rounded=0;whiteSpace=wrap;html=1;fillColor=#dae8fc;strokeColor=#6c8ebf;opacity=50;" vertex="1" parent="1">
          <mxGeometry x="715" y="1255" width="50" height="150" as="geometry" />
        </mxCell>
        <mxCell id="qYEso5ZYe-UhrBeJMv3y-726" value="" style="rounded=0;whiteSpace=wrap;html=1;fillColor=#dae8fc;strokeColor=#6c8ebf;opacity=50;" vertex="1" parent="1">
          <mxGeometry x="715" y="1155" width="110" height="90" as="geometry" />
        </mxCell>
        <mxCell id="qYEso5ZYe-UhrBeJMv3y-716" value="" style="rounded=0;whiteSpace=wrap;html=1;fillColor=#dae8fc;strokeColor=#6c8ebf;opacity=50;" vertex="1" parent="1">
          <mxGeometry x="395" y="1155" width="110" height="90" as="geometry" />
        </mxCell>
        <mxCell id="qYEso5ZYe-UhrBeJMv3y-717" value="" style="rounded=0;whiteSpace=wrap;html=1;fillColor=#dae8fc;strokeColor=#6c8ebf;opacity=50;" vertex="1" parent="1">
          <mxGeometry x="395" y="1255" width="50" height="150" as="geometry" />
        </mxCell>
        <mxCell id="qYEso5ZYe-UhrBeJMv3y-509" value="1" style="rounded=0;whiteSpace=wrap;html=1;fillColor=#ffe6cc;strokeColor=#d79b00;" vertex="1" parent="1">
          <mxGeometry x="140.5" y="979.5" width="40" height="20" as="geometry" />
        </mxCell>
        <mxCell id="qYEso5ZYe-UhrBeJMv3y-510" value="1,2" style="rounded=0;whiteSpace=wrap;html=1;" vertex="1" parent="1">
          <mxGeometry x="140.5" y="1059.5" width="40" height="20" as="geometry" />
        </mxCell>
        <mxCell id="qYEso5ZYe-UhrBeJMv3y-511" value="2" style="rounded=0;whiteSpace=wrap;html=1;" vertex="1" parent="1">
          <mxGeometry x="140.5" y="1079.5" width="40" height="20" as="geometry" />
        </mxCell>
        <mxCell id="qYEso5ZYe-UhrBeJMv3y-519" value="1" style="rounded=0;whiteSpace=wrap;html=1;fillColor=#ffe6cc;strokeColor=#d79b00;" vertex="1" parent="1">
          <mxGeometry x="80.5" y="1060" width="40" height="20" as="geometry" />
        </mxCell>
        <mxCell id="qYEso5ZYe-UhrBeJMv3y-526" value="1,2" style="rounded=0;whiteSpace=wrap;html=1;" vertex="1" parent="1">
          <mxGeometry x="80.5" y="1180" width="40" height="20" as="geometry" />
        </mxCell>
        <mxCell id="qYEso5ZYe-UhrBeJMv3y-527" value="2" style="rounded=0;whiteSpace=wrap;html=1;" vertex="1" parent="1">
          <mxGeometry x="80.5" y="1200" width="40" height="20" as="geometry" />
        </mxCell>
        <mxCell id="qYEso5ZYe-UhrBeJMv3y-528" value="1" style="rounded=0;whiteSpace=wrap;html=1;fillColor=#ffe6cc;strokeColor=#d79b00;" vertex="1" parent="1">
          <mxGeometry x="80.5" y="1160" width="40" height="20" as="geometry" />
        </mxCell>
        <mxCell id="qYEso5ZYe-UhrBeJMv3y-530" value="1,2,3" style="rounded=0;whiteSpace=wrap;html=1;" vertex="1" parent="1">
          <mxGeometry x="140.5" y="1179.5" width="40" height="20" as="geometry" />
        </mxCell>
        <mxCell id="qYEso5ZYe-UhrBeJMv3y-531" value="2,3" style="rounded=0;whiteSpace=wrap;html=1;" vertex="1" parent="1">
          <mxGeometry x="140.5" y="1199.5" width="40" height="20" as="geometry" />
        </mxCell>
        <mxCell id="qYEso5ZYe-UhrBeJMv3y-532" value="1,3" style="rounded=0;whiteSpace=wrap;html=1;" vertex="1" parent="1">
          <mxGeometry x="140.5" y="1159.5" width="40" height="20" as="geometry" />
        </mxCell>
        <mxCell id="qYEso5ZYe-UhrBeJMv3y-533" value="3" style="rounded=0;whiteSpace=wrap;html=1;" vertex="1" parent="1">
          <mxGeometry x="140.5" y="1219.5" width="40" height="20" as="geometry" />
        </mxCell>
        <mxCell id="qYEso5ZYe-UhrBeJMv3y-534" value="1,2" style="rounded=0;whiteSpace=wrap;html=1;" vertex="1" parent="1">
          <mxGeometry x="80.5" y="1281" width="40" height="20" as="geometry" />
        </mxCell>
        <mxCell id="qYEso5ZYe-UhrBeJMv3y-535" value="2" style="rounded=0;whiteSpace=wrap;html=1;" vertex="1" parent="1">
          <mxGeometry x="80.5" y="1301" width="40" height="20" as="geometry" />
        </mxCell>
        <mxCell id="qYEso5ZYe-UhrBeJMv3y-536" value="1" style="rounded=0;whiteSpace=wrap;html=1;fillColor=#ffe6cc;strokeColor=#d79b00;" vertex="1" parent="1">
          <mxGeometry x="80.5" y="1261" width="40" height="20" as="geometry" />
        </mxCell>
        <mxCell id="qYEso5ZYe-UhrBeJMv3y-537" value="1,2,3" style="rounded=0;whiteSpace=wrap;html=1;" vertex="1" parent="1">
          <mxGeometry x="80.5" y="1341" width="40" height="20" as="geometry" />
        </mxCell>
        <mxCell id="qYEso5ZYe-UhrBeJMv3y-538" value="2,3" style="rounded=0;whiteSpace=wrap;html=1;" vertex="1" parent="1">
          <mxGeometry x="80.5" y="1361" width="40" height="20" as="geometry" />
        </mxCell>
        <mxCell id="qYEso5ZYe-UhrBeJMv3y-539" value="1,3" style="rounded=0;whiteSpace=wrap;html=1;" vertex="1" parent="1">
          <mxGeometry x="80.5" y="1321" width="40" height="20" as="geometry" />
        </mxCell>
        <mxCell id="qYEso5ZYe-UhrBeJMv3y-540" value="3" style="rounded=0;whiteSpace=wrap;html=1;" vertex="1" parent="1">
          <mxGeometry x="80.5" y="1381" width="40" height="20" as="geometry" />
        </mxCell>
        <mxCell id="qYEso5ZYe-UhrBeJMv3y-541" value="1,2,4" style="rounded=0;whiteSpace=wrap;html=1;" vertex="1" parent="1">
          <mxGeometry x="140.5" y="1280.5" width="40" height="20" as="geometry" />
        </mxCell>
        <mxCell id="qYEso5ZYe-UhrBeJMv3y-542" value="2,4" style="rounded=0;whiteSpace=wrap;html=1;" vertex="1" parent="1">
          <mxGeometry x="140.5" y="1300.5" width="40" height="20" as="geometry" />
        </mxCell>
        <mxCell id="qYEso5ZYe-UhrBeJMv3y-543" value="1,4" style="rounded=0;whiteSpace=wrap;html=1;" vertex="1" parent="1">
          <mxGeometry x="140.5" y="1260.5" width="40" height="20" as="geometry" />
        </mxCell>
        <mxCell id="qYEso5ZYe-UhrBeJMv3y-544" value="1,2,3,4" style="rounded=0;whiteSpace=wrap;html=1;" vertex="1" parent="1">
          <mxGeometry x="140.5" y="1340.5" width="40" height="20" as="geometry" />
        </mxCell>
        <mxCell id="qYEso5ZYe-UhrBeJMv3y-545" value="2,3,4" style="rounded=0;whiteSpace=wrap;html=1;" vertex="1" parent="1">
          <mxGeometry x="140.5" y="1360.5" width="40" height="20" as="geometry" />
        </mxCell>
        <mxCell id="qYEso5ZYe-UhrBeJMv3y-546" value="1,3,4" style="rounded=0;whiteSpace=wrap;html=1;" vertex="1" parent="1">
          <mxGeometry x="140.5" y="1320.5" width="40" height="20" as="geometry" />
        </mxCell>
        <mxCell id="qYEso5ZYe-UhrBeJMv3y-547" value="3,4" style="rounded=0;whiteSpace=wrap;html=1;" vertex="1" parent="1">
          <mxGeometry x="140.5" y="1380.5" width="40" height="20" as="geometry" />
        </mxCell>
        <mxCell id="qYEso5ZYe-UhrBeJMv3y-548" value="4" style="rounded=0;whiteSpace=wrap;html=1;" vertex="1" parent="1">
          <mxGeometry x="140.5" y="1400.5" width="40" height="20" as="geometry" />
        </mxCell>
        <mxCell id="qYEso5ZYe-UhrBeJMv3y-549" value="1" style="rounded=0;whiteSpace=wrap;html=1;fillColor=#ffe6cc;strokeColor=#d79b00;" vertex="1" parent="1">
          <mxGeometry x="300.5" y="979.5" width="40" height="20" as="geometry" />
        </mxCell>
        <mxCell id="qYEso5ZYe-UhrBeJMv3y-550" value="1,2" style="rounded=0;whiteSpace=wrap;html=1;" vertex="1" parent="1">
          <mxGeometry x="300.5" y="1059.5" width="40" height="20" as="geometry" />
        </mxCell>
        <mxCell id="qYEso5ZYe-UhrBeJMv3y-551" value="2" style="rounded=0;whiteSpace=wrap;html=1;fillColor=#ffe6cc;strokeColor=#d79b00;" vertex="1" parent="1">
          <mxGeometry x="300.5" y="1079.5" width="40" height="20" as="geometry" />
        </mxCell>
        <mxCell id="qYEso5ZYe-UhrBeJMv3y-552" value="1" style="rounded=0;whiteSpace=wrap;html=1;fillColor=#ffe6cc;strokeColor=#d79b00;" vertex="1" parent="1">
          <mxGeometry x="240.5" y="1060" width="40" height="20" as="geometry" />
        </mxCell>
        <mxCell id="qYEso5ZYe-UhrBeJMv3y-553" value="1,2" style="rounded=0;whiteSpace=wrap;html=1;" vertex="1" parent="1">
          <mxGeometry x="240.5" y="1180" width="40" height="20" as="geometry" />
        </mxCell>
        <mxCell id="qYEso5ZYe-UhrBeJMv3y-554" value="2" style="rounded=0;whiteSpace=wrap;html=1;fillColor=#ffe6cc;strokeColor=#d79b00;" vertex="1" parent="1">
          <mxGeometry x="240.5" y="1200" width="40" height="20" as="geometry" />
        </mxCell>
        <mxCell id="qYEso5ZYe-UhrBeJMv3y-555" value="1" style="rounded=0;whiteSpace=wrap;html=1;fillColor=#ffe6cc;strokeColor=#d79b00;" vertex="1" parent="1">
          <mxGeometry x="240.5" y="1160" width="40" height="20" as="geometry" />
        </mxCell>
        <mxCell id="qYEso5ZYe-UhrBeJMv3y-556" value="1,2,3" style="rounded=0;whiteSpace=wrap;html=1;" vertex="1" parent="1">
          <mxGeometry x="300.5" y="1179.5" width="40" height="20" as="geometry" />
        </mxCell>
        <mxCell id="qYEso5ZYe-UhrBeJMv3y-557" value="2,3" style="rounded=0;whiteSpace=wrap;html=1;" vertex="1" parent="1">
          <mxGeometry x="300.5" y="1199.5" width="40" height="20" as="geometry" />
        </mxCell>
        <mxCell id="qYEso5ZYe-UhrBeJMv3y-558" value="1,3" style="rounded=0;whiteSpace=wrap;html=1;" vertex="1" parent="1">
          <mxGeometry x="300.5" y="1159.5" width="40" height="20" as="geometry" />
        </mxCell>
        <mxCell id="qYEso5ZYe-UhrBeJMv3y-559" value="3" style="rounded=0;whiteSpace=wrap;html=1;" vertex="1" parent="1">
          <mxGeometry x="300.5" y="1219.5" width="40" height="20" as="geometry" />
        </mxCell>
        <mxCell id="qYEso5ZYe-UhrBeJMv3y-560" value="1,2" style="rounded=0;whiteSpace=wrap;html=1;" vertex="1" parent="1">
          <mxGeometry x="240.5" y="1281" width="40" height="20" as="geometry" />
        </mxCell>
        <mxCell id="qYEso5ZYe-UhrBeJMv3y-561" value="2" style="rounded=0;whiteSpace=wrap;html=1;fillColor=#ffe6cc;strokeColor=#d79b00;" vertex="1" parent="1">
          <mxGeometry x="240.5" y="1301" width="40" height="20" as="geometry" />
        </mxCell>
        <mxCell id="qYEso5ZYe-UhrBeJMv3y-562" value="1" style="rounded=0;whiteSpace=wrap;html=1;fillColor=#ffe6cc;strokeColor=#d79b00;" vertex="1" parent="1">
          <mxGeometry x="240.5" y="1261" width="40" height="20" as="geometry" />
        </mxCell>
        <mxCell id="qYEso5ZYe-UhrBeJMv3y-563" value="1,2,3" style="rounded=0;whiteSpace=wrap;html=1;" vertex="1" parent="1">
          <mxGeometry x="240.5" y="1341" width="40" height="20" as="geometry" />
        </mxCell>
        <mxCell id="qYEso5ZYe-UhrBeJMv3y-564" value="2,3" style="rounded=0;whiteSpace=wrap;html=1;" vertex="1" parent="1">
          <mxGeometry x="240.5" y="1361" width="40" height="20" as="geometry" />
        </mxCell>
        <mxCell id="qYEso5ZYe-UhrBeJMv3y-565" value="1,3" style="rounded=0;whiteSpace=wrap;html=1;" vertex="1" parent="1">
          <mxGeometry x="240.5" y="1321" width="40" height="20" as="geometry" />
        </mxCell>
        <mxCell id="qYEso5ZYe-UhrBeJMv3y-566" value="3" style="rounded=0;whiteSpace=wrap;html=1;" vertex="1" parent="1">
          <mxGeometry x="240.5" y="1381" width="40" height="20" as="geometry" />
        </mxCell>
        <mxCell id="qYEso5ZYe-UhrBeJMv3y-567" value="1,2,4" style="rounded=0;whiteSpace=wrap;html=1;" vertex="1" parent="1">
          <mxGeometry x="300.5" y="1280.5" width="40" height="20" as="geometry" />
        </mxCell>
        <mxCell id="qYEso5ZYe-UhrBeJMv3y-568" value="2,4" style="rounded=0;whiteSpace=wrap;html=1;" vertex="1" parent="1">
          <mxGeometry x="300.5" y="1300.5" width="40" height="20" as="geometry" />
        </mxCell>
        <mxCell id="qYEso5ZYe-UhrBeJMv3y-569" value="1,4" style="rounded=0;whiteSpace=wrap;html=1;" vertex="1" parent="1">
          <mxGeometry x="300.5" y="1260.5" width="40" height="20" as="geometry" />
        </mxCell>
        <mxCell id="qYEso5ZYe-UhrBeJMv3y-570" value="1,2,3,4" style="rounded=0;whiteSpace=wrap;html=1;" vertex="1" parent="1">
          <mxGeometry x="300.5" y="1340.5" width="40" height="20" as="geometry" />
        </mxCell>
        <mxCell id="qYEso5ZYe-UhrBeJMv3y-571" value="2,3,4" style="rounded=0;whiteSpace=wrap;html=1;" vertex="1" parent="1">
          <mxGeometry x="300.5" y="1360.5" width="40" height="20" as="geometry" />
        </mxCell>
        <mxCell id="qYEso5ZYe-UhrBeJMv3y-572" value="1,3,4" style="rounded=0;whiteSpace=wrap;html=1;" vertex="1" parent="1">
          <mxGeometry x="300.5" y="1320.5" width="40" height="20" as="geometry" />
        </mxCell>
        <mxCell id="qYEso5ZYe-UhrBeJMv3y-573" value="3,4" style="rounded=0;whiteSpace=wrap;html=1;" vertex="1" parent="1">
          <mxGeometry x="300.5" y="1380.5" width="40" height="20" as="geometry" />
        </mxCell>
        <mxCell id="qYEso5ZYe-UhrBeJMv3y-574" value="4" style="rounded=0;whiteSpace=wrap;html=1;" vertex="1" parent="1">
          <mxGeometry x="300.5" y="1400.5" width="40" height="20" as="geometry" />
        </mxCell>
        <mxCell id="qYEso5ZYe-UhrBeJMv3y-575" value="1" style="rounded=0;whiteSpace=wrap;html=1;fillColor=#ffe6cc;strokeColor=#d79b00;" vertex="1" parent="1">
          <mxGeometry x="460.5" y="979.5" width="40" height="20" as="geometry" />
        </mxCell>
        <mxCell id="qYEso5ZYe-UhrBeJMv3y-576" value="1,2" style="rounded=0;whiteSpace=wrap;html=1;fillColor=#ffe6cc;strokeColor=#d79b00;" vertex="1" parent="1">
          <mxGeometry x="460.5" y="1059.5" width="40" height="20" as="geometry" />
        </mxCell>
        <mxCell id="qYEso5ZYe-UhrBeJMv3y-577" value="2" style="rounded=0;whiteSpace=wrap;html=1;fillColor=#ffe6cc;strokeColor=#d79b00;" vertex="1" parent="1">
          <mxGeometry x="460.5" y="1079.5" width="40" height="20" as="geometry" />
        </mxCell>
        <mxCell id="qYEso5ZYe-UhrBeJMv3y-578" value="1" style="rounded=0;whiteSpace=wrap;html=1;fillColor=#ffe6cc;strokeColor=#d79b00;" vertex="1" parent="1">
          <mxGeometry x="400.5" y="1060" width="40" height="20" as="geometry" />
        </mxCell>
        <mxCell id="qYEso5ZYe-UhrBeJMv3y-579" value="1,2" style="rounded=0;whiteSpace=wrap;html=1;fillColor=#ffe6cc;strokeColor=#d79b00;" vertex="1" parent="1">
          <mxGeometry x="400.5" y="1180" width="40" height="20" as="geometry" />
        </mxCell>
        <mxCell id="qYEso5ZYe-UhrBeJMv3y-580" value="2" style="rounded=0;whiteSpace=wrap;html=1;fillColor=#ffe6cc;strokeColor=#d79b00;" vertex="1" parent="1">
          <mxGeometry x="400.5" y="1200" width="40" height="20" as="geometry" />
        </mxCell>
        <mxCell id="qYEso5ZYe-UhrBeJMv3y-581" value="1" style="rounded=0;whiteSpace=wrap;html=1;fillColor=#ffe6cc;strokeColor=#d79b00;" vertex="1" parent="1">
          <mxGeometry x="400.5" y="1160" width="40" height="20" as="geometry" />
        </mxCell>
        <mxCell id="qYEso5ZYe-UhrBeJMv3y-582" value="1,2,3" style="rounded=0;whiteSpace=wrap;html=1;" vertex="1" parent="1">
          <mxGeometry x="460.5" y="1179.5" width="40" height="20" as="geometry" />
        </mxCell>
        <mxCell id="qYEso5ZYe-UhrBeJMv3y-583" value="2,3" style="rounded=0;whiteSpace=wrap;html=1;" vertex="1" parent="1">
          <mxGeometry x="460.5" y="1199.5" width="40" height="20" as="geometry" />
        </mxCell>
        <mxCell id="qYEso5ZYe-UhrBeJMv3y-584" value="1,3" style="rounded=0;whiteSpace=wrap;html=1;" vertex="1" parent="1">
          <mxGeometry x="460.5" y="1159.5" width="40" height="20" as="geometry" />
        </mxCell>
        <mxCell id="qYEso5ZYe-UhrBeJMv3y-585" value="3" style="rounded=0;whiteSpace=wrap;html=1;fillColor=#ffe6cc;strokeColor=#d79b00;" vertex="1" parent="1">
          <mxGeometry x="460.5" y="1219.5" width="40" height="20" as="geometry" />
        </mxCell>
        <mxCell id="qYEso5ZYe-UhrBeJMv3y-586" value="1,2" style="rounded=0;whiteSpace=wrap;html=1;fillColor=#ffe6cc;strokeColor=#d79b00;" vertex="1" parent="1">
          <mxGeometry x="400.5" y="1281" width="40" height="20" as="geometry" />
        </mxCell>
        <mxCell id="qYEso5ZYe-UhrBeJMv3y-587" value="2" style="rounded=0;whiteSpace=wrap;html=1;fillColor=#ffe6cc;strokeColor=#d79b00;" vertex="1" parent="1">
          <mxGeometry x="400.5" y="1301" width="40" height="20" as="geometry" />
        </mxCell>
        <mxCell id="qYEso5ZYe-UhrBeJMv3y-588" value="1" style="rounded=0;whiteSpace=wrap;html=1;fillColor=#ffe6cc;strokeColor=#d79b00;" vertex="1" parent="1">
          <mxGeometry x="400.5" y="1261" width="40" height="20" as="geometry" />
        </mxCell>
        <mxCell id="qYEso5ZYe-UhrBeJMv3y-589" value="1,2,3" style="rounded=0;whiteSpace=wrap;html=1;" vertex="1" parent="1">
          <mxGeometry x="400.5" y="1341" width="40" height="20" as="geometry" />
        </mxCell>
        <mxCell id="qYEso5ZYe-UhrBeJMv3y-590" value="2,3" style="rounded=0;whiteSpace=wrap;html=1;" vertex="1" parent="1">
          <mxGeometry x="400.5" y="1361" width="40" height="20" as="geometry" />
        </mxCell>
        <mxCell id="qYEso5ZYe-UhrBeJMv3y-591" value="1,3" style="rounded=0;whiteSpace=wrap;html=1;" vertex="1" parent="1">
          <mxGeometry x="400.5" y="1321" width="40" height="20" as="geometry" />
        </mxCell>
        <mxCell id="qYEso5ZYe-UhrBeJMv3y-592" value="3" style="rounded=0;whiteSpace=wrap;html=1;fillColor=#ffe6cc;strokeColor=#d79b00;" vertex="1" parent="1">
          <mxGeometry x="400.5" y="1381" width="40" height="20" as="geometry" />
        </mxCell>
        <mxCell id="qYEso5ZYe-UhrBeJMv3y-593" value="1,2,4" style="rounded=0;whiteSpace=wrap;html=1;" vertex="1" parent="1">
          <mxGeometry x="460.5" y="1280.5" width="40" height="20" as="geometry" />
        </mxCell>
        <mxCell id="qYEso5ZYe-UhrBeJMv3y-594" value="2,4" style="rounded=0;whiteSpace=wrap;html=1;" vertex="1" parent="1">
          <mxGeometry x="460.5" y="1300.5" width="40" height="20" as="geometry" />
        </mxCell>
        <mxCell id="qYEso5ZYe-UhrBeJMv3y-595" value="1,4" style="rounded=0;whiteSpace=wrap;html=1;" vertex="1" parent="1">
          <mxGeometry x="460.5" y="1260.5" width="40" height="20" as="geometry" />
        </mxCell>
        <mxCell id="qYEso5ZYe-UhrBeJMv3y-596" value="1,2,3,4" style="rounded=0;whiteSpace=wrap;html=1;" vertex="1" parent="1">
          <mxGeometry x="460.5" y="1340.5" width="40" height="20" as="geometry" />
        </mxCell>
        <mxCell id="qYEso5ZYe-UhrBeJMv3y-597" value="2,3,4" style="rounded=0;whiteSpace=wrap;html=1;" vertex="1" parent="1">
          <mxGeometry x="460.5" y="1360.5" width="40" height="20" as="geometry" />
        </mxCell>
        <mxCell id="qYEso5ZYe-UhrBeJMv3y-598" value="1,3,4" style="rounded=0;whiteSpace=wrap;html=1;" vertex="1" parent="1">
          <mxGeometry x="460.5" y="1320.5" width="40" height="20" as="geometry" />
        </mxCell>
        <mxCell id="qYEso5ZYe-UhrBeJMv3y-599" value="3,4" style="rounded=0;whiteSpace=wrap;html=1;" vertex="1" parent="1">
          <mxGeometry x="460.5" y="1380.5" width="40" height="20" as="geometry" />
        </mxCell>
        <mxCell id="qYEso5ZYe-UhrBeJMv3y-600" value="4" style="rounded=0;whiteSpace=wrap;html=1;" vertex="1" parent="1">
          <mxGeometry x="460.5" y="1400.5" width="40" height="20" as="geometry" />
        </mxCell>
        <mxCell id="qYEso5ZYe-UhrBeJMv3y-601" value="1" style="rounded=0;whiteSpace=wrap;html=1;fillColor=#ffe6cc;strokeColor=#d79b00;" vertex="1" parent="1">
          <mxGeometry x="621" y="979.5" width="40" height="20" as="geometry" />
        </mxCell>
        <mxCell id="qYEso5ZYe-UhrBeJMv3y-602" value="1,2" style="rounded=0;whiteSpace=wrap;html=1;fillColor=#ffe6cc;strokeColor=#d79b00;" vertex="1" parent="1">
          <mxGeometry x="621" y="1059.5" width="40" height="20" as="geometry" />
        </mxCell>
        <mxCell id="qYEso5ZYe-UhrBeJMv3y-603" value="2" style="rounded=0;whiteSpace=wrap;html=1;fillColor=#ffe6cc;strokeColor=#d79b00;" vertex="1" parent="1">
          <mxGeometry x="621" y="1079.5" width="40" height="20" as="geometry" />
        </mxCell>
        <mxCell id="qYEso5ZYe-UhrBeJMv3y-604" value="1" style="rounded=0;whiteSpace=wrap;html=1;fillColor=#ffe6cc;strokeColor=#d79b00;" vertex="1" parent="1">
          <mxGeometry x="561" y="1060" width="40" height="20" as="geometry" />
        </mxCell>
        <mxCell id="qYEso5ZYe-UhrBeJMv3y-605" value="1,2" style="rounded=0;whiteSpace=wrap;html=1;fillColor=#ffe6cc;strokeColor=#d79b00;" vertex="1" parent="1">
          <mxGeometry x="561" y="1180" width="40" height="20" as="geometry" />
        </mxCell>
        <mxCell id="qYEso5ZYe-UhrBeJMv3y-606" value="2" style="rounded=0;whiteSpace=wrap;html=1;fillColor=#ffe6cc;strokeColor=#d79b00;" vertex="1" parent="1">
          <mxGeometry x="561" y="1200" width="40" height="20" as="geometry" />
        </mxCell>
        <mxCell id="qYEso5ZYe-UhrBeJMv3y-607" value="1" style="rounded=0;whiteSpace=wrap;html=1;fillColor=#ffe6cc;strokeColor=#d79b00;" vertex="1" parent="1">
          <mxGeometry x="561" y="1160" width="40" height="20" as="geometry" />
        </mxCell>
        <mxCell id="qYEso5ZYe-UhrBeJMv3y-608" value="1,2,3" style="rounded=0;whiteSpace=wrap;html=1;" vertex="1" parent="1">
          <mxGeometry x="621" y="1179.5" width="40" height="20" as="geometry" />
        </mxCell>
        <mxCell id="qYEso5ZYe-UhrBeJMv3y-609" value="2,3" style="rounded=0;whiteSpace=wrap;html=1;" vertex="1" parent="1">
          <mxGeometry x="621" y="1199.5" width="40" height="20" as="geometry" />
        </mxCell>
        <mxCell id="qYEso5ZYe-UhrBeJMv3y-610" value="1,3" style="rounded=0;whiteSpace=wrap;html=1;fillColor=#ffe6cc;strokeColor=#d79b00;" vertex="1" parent="1">
          <mxGeometry x="621" y="1159.5" width="40" height="20" as="geometry" />
        </mxCell>
        <mxCell id="qYEso5ZYe-UhrBeJMv3y-611" value="3" style="rounded=0;whiteSpace=wrap;html=1;fillColor=#ffe6cc;strokeColor=#d79b00;" vertex="1" parent="1">
          <mxGeometry x="621" y="1219.5" width="40" height="20" as="geometry" />
        </mxCell>
        <mxCell id="qYEso5ZYe-UhrBeJMv3y-612" value="1,2" style="rounded=0;whiteSpace=wrap;html=1;fillColor=#ffe6cc;strokeColor=#d79b00;" vertex="1" parent="1">
          <mxGeometry x="561" y="1281" width="40" height="20" as="geometry" />
        </mxCell>
        <mxCell id="qYEso5ZYe-UhrBeJMv3y-613" value="2" style="rounded=0;whiteSpace=wrap;html=1;fillColor=#ffe6cc;strokeColor=#d79b00;" vertex="1" parent="1">
          <mxGeometry x="561" y="1301" width="40" height="20" as="geometry" />
        </mxCell>
        <mxCell id="qYEso5ZYe-UhrBeJMv3y-614" value="1" style="rounded=0;whiteSpace=wrap;html=1;fillColor=#ffe6cc;strokeColor=#d79b00;" vertex="1" parent="1">
          <mxGeometry x="561" y="1261" width="40" height="20" as="geometry" />
        </mxCell>
        <mxCell id="qYEso5ZYe-UhrBeJMv3y-615" value="1,2,3" style="rounded=0;whiteSpace=wrap;html=1;" vertex="1" parent="1">
          <mxGeometry x="561" y="1341" width="40" height="20" as="geometry" />
        </mxCell>
        <mxCell id="qYEso5ZYe-UhrBeJMv3y-616" value="2,3" style="rounded=0;whiteSpace=wrap;html=1;" vertex="1" parent="1">
          <mxGeometry x="561" y="1361" width="40" height="20" as="geometry" />
        </mxCell>
        <mxCell id="qYEso5ZYe-UhrBeJMv3y-617" value="1,3" style="rounded=0;whiteSpace=wrap;html=1;fillColor=#ffe6cc;strokeColor=#d79b00;" vertex="1" parent="1">
          <mxGeometry x="561" y="1321" width="40" height="20" as="geometry" />
        </mxCell>
        <mxCell id="qYEso5ZYe-UhrBeJMv3y-618" value="3" style="rounded=0;whiteSpace=wrap;html=1;fillColor=#ffe6cc;strokeColor=#d79b00;" vertex="1" parent="1">
          <mxGeometry x="561" y="1381" width="40" height="20" as="geometry" />
        </mxCell>
        <mxCell id="qYEso5ZYe-UhrBeJMv3y-619" value="1,2,4" style="rounded=0;whiteSpace=wrap;html=1;" vertex="1" parent="1">
          <mxGeometry x="621" y="1280.5" width="40" height="20" as="geometry" />
        </mxCell>
        <mxCell id="qYEso5ZYe-UhrBeJMv3y-620" value="2,4" style="rounded=0;whiteSpace=wrap;html=1;" vertex="1" parent="1">
          <mxGeometry x="621" y="1300.5" width="40" height="20" as="geometry" />
        </mxCell>
        <mxCell id="qYEso5ZYe-UhrBeJMv3y-621" value="1,4" style="rounded=0;whiteSpace=wrap;html=1;" vertex="1" parent="1">
          <mxGeometry x="621" y="1260.5" width="40" height="20" as="geometry" />
        </mxCell>
        <mxCell id="qYEso5ZYe-UhrBeJMv3y-622" value="1,2,3,4" style="rounded=0;whiteSpace=wrap;html=1;" vertex="1" parent="1">
          <mxGeometry x="621" y="1340.5" width="40" height="20" as="geometry" />
        </mxCell>
        <mxCell id="qYEso5ZYe-UhrBeJMv3y-623" value="2,3,4" style="rounded=0;whiteSpace=wrap;html=1;" vertex="1" parent="1">
          <mxGeometry x="621" y="1360.5" width="40" height="20" as="geometry" />
        </mxCell>
        <mxCell id="qYEso5ZYe-UhrBeJMv3y-624" value="1,3,4" style="rounded=0;whiteSpace=wrap;html=1;" vertex="1" parent="1">
          <mxGeometry x="621" y="1320.5" width="40" height="20" as="geometry" />
        </mxCell>
        <mxCell id="qYEso5ZYe-UhrBeJMv3y-625" value="3,4" style="rounded=0;whiteSpace=wrap;html=1;" vertex="1" parent="1">
          <mxGeometry x="621" y="1380.5" width="40" height="20" as="geometry" />
        </mxCell>
        <mxCell id="qYEso5ZYe-UhrBeJMv3y-626" value="4" style="rounded=0;whiteSpace=wrap;html=1;fillColor=#ffe6cc;strokeColor=#d79b00;" vertex="1" parent="1">
          <mxGeometry x="621" y="1400.5" width="40" height="20" as="geometry" />
        </mxCell>
        <mxCell id="qYEso5ZYe-UhrBeJMv3y-627" value="1" style="rounded=0;whiteSpace=wrap;html=1;fillColor=#ffe6cc;strokeColor=#d79b00;" vertex="1" parent="1">
          <mxGeometry x="781" y="979.5" width="40" height="20" as="geometry" />
        </mxCell>
        <mxCell id="qYEso5ZYe-UhrBeJMv3y-628" value="1,2" style="rounded=0;whiteSpace=wrap;html=1;fillColor=#ffe6cc;strokeColor=#d79b00;" vertex="1" parent="1">
          <mxGeometry x="779" y="1059.5" width="40" height="20" as="geometry" />
        </mxCell>
        <mxCell id="qYEso5ZYe-UhrBeJMv3y-629" value="2" style="rounded=0;whiteSpace=wrap;html=1;fillColor=#ffe6cc;strokeColor=#d79b00;" vertex="1" parent="1">
          <mxGeometry x="779" y="1079.5" width="40" height="20" as="geometry" />
        </mxCell>
        <mxCell id="qYEso5ZYe-UhrBeJMv3y-630" value="1" style="rounded=0;whiteSpace=wrap;html=1;fillColor=#ffe6cc;strokeColor=#d79b00;" vertex="1" parent="1">
          <mxGeometry x="721" y="1060" width="40" height="20" as="geometry" />
        </mxCell>
        <mxCell id="qYEso5ZYe-UhrBeJMv3y-631" value="1,2" style="rounded=0;whiteSpace=wrap;html=1;fillColor=#ffe6cc;strokeColor=#d79b00;" vertex="1" parent="1">
          <mxGeometry x="720" y="1180" width="40" height="20" as="geometry" />
        </mxCell>
        <mxCell id="qYEso5ZYe-UhrBeJMv3y-632" value="2" style="rounded=0;whiteSpace=wrap;html=1;fillColor=#ffe6cc;strokeColor=#d79b00;" vertex="1" parent="1">
          <mxGeometry x="720" y="1200" width="40" height="20" as="geometry" />
        </mxCell>
        <mxCell id="qYEso5ZYe-UhrBeJMv3y-633" value="1" style="rounded=0;whiteSpace=wrap;html=1;fillColor=#ffe6cc;strokeColor=#d79b00;" vertex="1" parent="1">
          <mxGeometry x="720" y="1160" width="40" height="20" as="geometry" />
        </mxCell>
        <mxCell id="qYEso5ZYe-UhrBeJMv3y-634" value="1,2,3" style="rounded=0;whiteSpace=wrap;html=1;" vertex="1" parent="1">
          <mxGeometry x="779" y="1179.5" width="40" height="20" as="geometry" />
        </mxCell>
        <mxCell id="qYEso5ZYe-UhrBeJMv3y-635" value="2,3" style="rounded=0;whiteSpace=wrap;html=1;fillColor=#ffe6cc;strokeColor=#d79b00;" vertex="1" parent="1">
          <mxGeometry x="779" y="1199.5" width="40" height="20" as="geometry" />
        </mxCell>
        <mxCell id="qYEso5ZYe-UhrBeJMv3y-636" value="1,3" style="rounded=0;whiteSpace=wrap;html=1;fillColor=#ffe6cc;strokeColor=#d79b00;" vertex="1" parent="1">
          <mxGeometry x="779" y="1159.5" width="40" height="20" as="geometry" />
        </mxCell>
        <mxCell id="qYEso5ZYe-UhrBeJMv3y-637" value="3" style="rounded=0;whiteSpace=wrap;html=1;fillColor=#ffe6cc;strokeColor=#d79b00;" vertex="1" parent="1">
          <mxGeometry x="779" y="1219.5" width="40" height="20" as="geometry" />
        </mxCell>
        <mxCell id="qYEso5ZYe-UhrBeJMv3y-638" value="1,2" style="rounded=0;whiteSpace=wrap;html=1;fillColor=#ffe6cc;strokeColor=#d79b00;" vertex="1" parent="1">
          <mxGeometry x="720" y="1281" width="40" height="20" as="geometry" />
        </mxCell>
        <mxCell id="qYEso5ZYe-UhrBeJMv3y-639" value="2" style="rounded=0;whiteSpace=wrap;html=1;fillColor=#ffe6cc;strokeColor=#d79b00;" vertex="1" parent="1">
          <mxGeometry x="720" y="1301" width="40" height="20" as="geometry" />
        </mxCell>
        <mxCell id="qYEso5ZYe-UhrBeJMv3y-640" value="1" style="rounded=0;whiteSpace=wrap;html=1;fillColor=#ffe6cc;strokeColor=#d79b00;" vertex="1" parent="1">
          <mxGeometry x="720" y="1261" width="40" height="20" as="geometry" />
        </mxCell>
        <mxCell id="qYEso5ZYe-UhrBeJMv3y-641" value="1,2,3" style="rounded=0;whiteSpace=wrap;html=1;" vertex="1" parent="1">
          <mxGeometry x="720" y="1341" width="40" height="20" as="geometry" />
        </mxCell>
        <mxCell id="qYEso5ZYe-UhrBeJMv3y-642" value="2,3" style="rounded=0;whiteSpace=wrap;html=1;fillColor=#ffe6cc;strokeColor=#d79b00;" vertex="1" parent="1">
          <mxGeometry x="720" y="1361" width="40" height="20" as="geometry" />
        </mxCell>
        <mxCell id="qYEso5ZYe-UhrBeJMv3y-643" value="1,3" style="rounded=0;whiteSpace=wrap;html=1;fillColor=#ffe6cc;strokeColor=#d79b00;" vertex="1" parent="1">
          <mxGeometry x="720" y="1321" width="40" height="20" as="geometry" />
        </mxCell>
        <mxCell id="qYEso5ZYe-UhrBeJMv3y-644" value="3" style="rounded=0;whiteSpace=wrap;html=1;fillColor=#ffe6cc;strokeColor=#d79b00;" vertex="1" parent="1">
          <mxGeometry x="720" y="1381" width="40" height="20" as="geometry" />
        </mxCell>
        <mxCell id="qYEso5ZYe-UhrBeJMv3y-645" value="1,2,4" style="rounded=0;whiteSpace=wrap;html=1;" vertex="1" parent="1">
          <mxGeometry x="780" y="1280.5" width="40" height="20" as="geometry" />
        </mxCell>
        <mxCell id="qYEso5ZYe-UhrBeJMv3y-646" value="2,4" style="rounded=0;whiteSpace=wrap;html=1;" vertex="1" parent="1">
          <mxGeometry x="780" y="1300.5" width="40" height="20" as="geometry" />
        </mxCell>
        <mxCell id="qYEso5ZYe-UhrBeJMv3y-647" value="1,4" style="rounded=0;whiteSpace=wrap;html=1;fillColor=#ffe6cc;strokeColor=#d79b00;" vertex="1" parent="1">
          <mxGeometry x="780" y="1260.5" width="40" height="20" as="geometry" />
        </mxCell>
        <mxCell id="qYEso5ZYe-UhrBeJMv3y-648" value="1,2,3,4" style="rounded=0;whiteSpace=wrap;html=1;" vertex="1" parent="1">
          <mxGeometry x="780" y="1340.5" width="40" height="20" as="geometry" />
        </mxCell>
        <mxCell id="qYEso5ZYe-UhrBeJMv3y-649" value="2,3,4" style="rounded=0;whiteSpace=wrap;html=1;" vertex="1" parent="1">
          <mxGeometry x="780" y="1360.5" width="40" height="20" as="geometry" />
        </mxCell>
        <mxCell id="qYEso5ZYe-UhrBeJMv3y-650" value="1,3,4" style="rounded=0;whiteSpace=wrap;html=1;" vertex="1" parent="1">
          <mxGeometry x="780" y="1320.5" width="40" height="20" as="geometry" />
        </mxCell>
        <mxCell id="qYEso5ZYe-UhrBeJMv3y-651" value="3,4" style="rounded=0;whiteSpace=wrap;html=1;" vertex="1" parent="1">
          <mxGeometry x="780" y="1380.5" width="40" height="20" as="geometry" />
        </mxCell>
        <mxCell id="qYEso5ZYe-UhrBeJMv3y-652" value="4" style="rounded=0;whiteSpace=wrap;html=1;fillColor=#ffe6cc;strokeColor=#d79b00;" vertex="1" parent="1">
          <mxGeometry x="780" y="1400.5" width="40" height="20" as="geometry" />
        </mxCell>
        <mxCell id="qYEso5ZYe-UhrBeJMv3y-653" value="包承重 1" style="rounded=0;whiteSpace=wrap;html=1;" vertex="1" parent="1">
          <mxGeometry x="40.5" y="920" width="160" height="20" as="geometry" />
        </mxCell>
        <mxCell id="qYEso5ZYe-UhrBeJMv3y-654" value="包承重 2" style="rounded=0;whiteSpace=wrap;html=1;" vertex="1" parent="1">
          <mxGeometry x="200.5" y="920" width="160" height="20" as="geometry" />
        </mxCell>
        <mxCell id="qYEso5ZYe-UhrBeJMv3y-655" value="包承重 3" style="rounded=0;whiteSpace=wrap;html=1;" vertex="1" parent="1">
          <mxGeometry x="360.5" y="920" width="160" height="20" as="geometry" />
        </mxCell>
        <mxCell id="qYEso5ZYe-UhrBeJMv3y-656" value="包承重 4" style="rounded=0;whiteSpace=wrap;html=1;" vertex="1" parent="1">
          <mxGeometry x="520.5" y="920" width="160" height="20" as="geometry" />
        </mxCell>
        <mxCell id="qYEso5ZYe-UhrBeJMv3y-657" value="包承重 5" style="rounded=0;whiteSpace=wrap;html=1;" vertex="1" parent="1">
          <mxGeometry x="680.5" y="920" width="160" height="20" as="geometry" />
        </mxCell>
        <mxCell id="qYEso5ZYe-UhrBeJMv3y-658" value="包承重 6" style="rounded=0;whiteSpace=wrap;html=1;" vertex="1" parent="1">
          <mxGeometry x="840.5" y="920" width="160" height="20" as="geometry" />
        </mxCell>
        <mxCell id="qYEso5ZYe-UhrBeJMv3y-659" value="1" style="rounded=0;whiteSpace=wrap;html=1;fillColor=#ffe6cc;strokeColor=#d79b00;" vertex="1" parent="1">
          <mxGeometry x="940.5" y="979.5" width="40" height="20" as="geometry" />
        </mxCell>
        <mxCell id="qYEso5ZYe-UhrBeJMv3y-660" value="1,2" style="rounded=0;whiteSpace=wrap;html=1;fillColor=#ffe6cc;strokeColor=#d79b00;" vertex="1" parent="1">
          <mxGeometry x="940" y="1059.5" width="40" height="20" as="geometry" />
        </mxCell>
        <mxCell id="qYEso5ZYe-UhrBeJMv3y-661" value="2" style="rounded=0;whiteSpace=wrap;html=1;fillColor=#ffe6cc;strokeColor=#d79b00;" vertex="1" parent="1">
          <mxGeometry x="940" y="1079.5" width="40" height="20" as="geometry" />
        </mxCell>
        <mxCell id="qYEso5ZYe-UhrBeJMv3y-662" value="1" style="rounded=0;whiteSpace=wrap;html=1;fillColor=#ffe6cc;strokeColor=#d79b00;" vertex="1" parent="1">
          <mxGeometry x="879.5" y="1060" width="40" height="20" as="geometry" />
        </mxCell>
        <mxCell id="qYEso5ZYe-UhrBeJMv3y-663" value="1,2" style="rounded=0;whiteSpace=wrap;html=1;fillColor=#ffe6cc;strokeColor=#d79b00;" vertex="1" parent="1">
          <mxGeometry x="879.5" y="1180" width="40" height="20" as="geometry" />
        </mxCell>
        <mxCell id="qYEso5ZYe-UhrBeJMv3y-664" value="2" style="rounded=0;whiteSpace=wrap;html=1;fillColor=#ffe6cc;strokeColor=#d79b00;" vertex="1" parent="1">
          <mxGeometry x="879.5" y="1200" width="40" height="20" as="geometry" />
        </mxCell>
        <mxCell id="qYEso5ZYe-UhrBeJMv3y-665" value="1" style="rounded=0;whiteSpace=wrap;html=1;fillColor=#ffe6cc;strokeColor=#d79b00;" vertex="1" parent="1">
          <mxGeometry x="879.5" y="1160" width="40" height="20" as="geometry" />
        </mxCell>
        <mxCell id="qYEso5ZYe-UhrBeJMv3y-666" value="1,2,3" style="rounded=0;whiteSpace=wrap;html=1;fillColor=#ffe6cc;strokeColor=#d79b00;" vertex="1" parent="1">
          <mxGeometry x="940" y="1179.5" width="40" height="20" as="geometry" />
        </mxCell>
        <mxCell id="qYEso5ZYe-UhrBeJMv3y-667" value="2,3" style="rounded=0;whiteSpace=wrap;html=1;fillColor=#ffe6cc;strokeColor=#d79b00;" vertex="1" parent="1">
          <mxGeometry x="940" y="1199.5" width="40" height="20" as="geometry" />
        </mxCell>
        <mxCell id="qYEso5ZYe-UhrBeJMv3y-668" value="1,3" style="rounded=0;whiteSpace=wrap;html=1;fillColor=#ffe6cc;strokeColor=#d79b00;" vertex="1" parent="1">
          <mxGeometry x="940" y="1159.5" width="40" height="20" as="geometry" />
        </mxCell>
        <mxCell id="qYEso5ZYe-UhrBeJMv3y-669" value="3" style="rounded=0;whiteSpace=wrap;html=1;fillColor=#ffe6cc;strokeColor=#d79b00;" vertex="1" parent="1">
          <mxGeometry x="940" y="1219.5" width="40" height="20" as="geometry" />
        </mxCell>
        <mxCell id="qYEso5ZYe-UhrBeJMv3y-670" value="1,2" style="rounded=0;whiteSpace=wrap;html=1;fillColor=#ffe6cc;strokeColor=#d79b00;" vertex="1" parent="1">
          <mxGeometry x="879.5" y="1281" width="40" height="20" as="geometry" />
        </mxCell>
        <mxCell id="qYEso5ZYe-UhrBeJMv3y-671" value="2" style="rounded=0;whiteSpace=wrap;html=1;fillColor=#ffe6cc;strokeColor=#d79b00;" vertex="1" parent="1">
          <mxGeometry x="879.5" y="1301" width="40" height="20" as="geometry" />
        </mxCell>
        <mxCell id="qYEso5ZYe-UhrBeJMv3y-672" value="1" style="rounded=0;whiteSpace=wrap;html=1;fillColor=#ffe6cc;strokeColor=#d79b00;" vertex="1" parent="1">
          <mxGeometry x="879.5" y="1261" width="40" height="20" as="geometry" />
        </mxCell>
        <mxCell id="qYEso5ZYe-UhrBeJMv3y-673" value="1,2,3" style="rounded=0;whiteSpace=wrap;html=1;fillColor=#ffe6cc;strokeColor=#d79b00;" vertex="1" parent="1">
          <mxGeometry x="879.5" y="1341" width="40" height="20" as="geometry" />
        </mxCell>
        <mxCell id="qYEso5ZYe-UhrBeJMv3y-674" value="2,3" style="rounded=0;whiteSpace=wrap;html=1;fillColor=#ffe6cc;strokeColor=#d79b00;" vertex="1" parent="1">
          <mxGeometry x="879.5" y="1361" width="40" height="20" as="geometry" />
        </mxCell>
        <mxCell id="qYEso5ZYe-UhrBeJMv3y-675" value="1,3" style="rounded=0;whiteSpace=wrap;html=1;fillColor=#ffe6cc;strokeColor=#d79b00;" vertex="1" parent="1">
          <mxGeometry x="879.5" y="1321" width="40" height="20" as="geometry" />
        </mxCell>
        <mxCell id="qYEso5ZYe-UhrBeJMv3y-676" value="3" style="rounded=0;whiteSpace=wrap;html=1;fillColor=#ffe6cc;strokeColor=#d79b00;" vertex="1" parent="1">
          <mxGeometry x="879.5" y="1381" width="40" height="20" as="geometry" />
        </mxCell>
        <mxCell id="qYEso5ZYe-UhrBeJMv3y-677" value="1,2,4" style="rounded=0;whiteSpace=wrap;html=1;" vertex="1" parent="1">
          <mxGeometry x="940" y="1280.5" width="40" height="20" as="geometry" />
        </mxCell>
        <mxCell id="qYEso5ZYe-UhrBeJMv3y-678" value="2,4" style="rounded=0;whiteSpace=wrap;html=1;fillColor=#ffe6cc;strokeColor=#d79b00;" vertex="1" parent="1">
          <mxGeometry x="940" y="1300.5" width="40" height="20" as="geometry" />
        </mxCell>
        <mxCell id="qYEso5ZYe-UhrBeJMv3y-679" value="1,4" style="rounded=0;whiteSpace=wrap;html=1;fillColor=#ffe6cc;strokeColor=#d79b00;" vertex="1" parent="1">
          <mxGeometry x="940" y="1260.5" width="40" height="20" as="geometry" />
        </mxCell>
        <mxCell id="qYEso5ZYe-UhrBeJMv3y-680" value="1,2,3,4" style="rounded=0;whiteSpace=wrap;html=1;" vertex="1" parent="1">
          <mxGeometry x="940" y="1340.5" width="40" height="20" as="geometry" />
        </mxCell>
        <mxCell id="qYEso5ZYe-UhrBeJMv3y-681" value="2,3,4" style="rounded=0;whiteSpace=wrap;html=1;" vertex="1" parent="1">
          <mxGeometry x="940" y="1360.5" width="40" height="20" as="geometry" />
        </mxCell>
        <mxCell id="qYEso5ZYe-UhrBeJMv3y-682" value="1,3,4" style="rounded=0;whiteSpace=wrap;html=1;" vertex="1" parent="1">
          <mxGeometry x="940" y="1320.5" width="40" height="20" as="geometry" />
        </mxCell>
        <mxCell id="qYEso5ZYe-UhrBeJMv3y-683" value="3,4" style="rounded=0;whiteSpace=wrap;html=1;" vertex="1" parent="1">
          <mxGeometry x="940" y="1380.5" width="40" height="20" as="geometry" />
        </mxCell>
        <mxCell id="qYEso5ZYe-UhrBeJMv3y-684" value="4" style="rounded=0;whiteSpace=wrap;html=1;fillColor=#ffe6cc;strokeColor=#d79b00;" vertex="1" parent="1">
          <mxGeometry x="940" y="1400.5" width="40" height="20" as="geometry" />
        </mxCell>
        <mxCell id="qYEso5ZYe-UhrBeJMv3y-689" value="包承重 7" style="rounded=0;whiteSpace=wrap;html=1;" vertex="1" parent="1">
          <mxGeometry x="1000.5" y="920" width="160" height="20" as="geometry" />
        </mxCell>
        <mxCell id="qYEso5ZYe-UhrBeJMv3y-690" value="1" style="rounded=0;whiteSpace=wrap;html=1;fillColor=#ffe6cc;strokeColor=#d79b00;" vertex="1" parent="1">
          <mxGeometry x="1100" y="979.5" width="40" height="20" as="geometry" />
        </mxCell>
        <mxCell id="qYEso5ZYe-UhrBeJMv3y-691" value="1,2" style="rounded=0;whiteSpace=wrap;html=1;fillColor=#ffe6cc;strokeColor=#d79b00;" vertex="1" parent="1">
          <mxGeometry x="1100" y="1059.5" width="40" height="20" as="geometry" />
        </mxCell>
        <mxCell id="qYEso5ZYe-UhrBeJMv3y-692" value="2" style="rounded=0;whiteSpace=wrap;html=1;fillColor=#ffe6cc;strokeColor=#d79b00;" vertex="1" parent="1">
          <mxGeometry x="1100" y="1079.5" width="40" height="20" as="geometry" />
        </mxCell>
        <mxCell id="qYEso5ZYe-UhrBeJMv3y-693" value="1" style="rounded=0;whiteSpace=wrap;html=1;fillColor=#ffe6cc;strokeColor=#d79b00;" vertex="1" parent="1">
          <mxGeometry x="1040" y="1060" width="40" height="20" as="geometry" />
        </mxCell>
        <mxCell id="qYEso5ZYe-UhrBeJMv3y-694" value="1,2" style="rounded=0;whiteSpace=wrap;html=1;fillColor=#ffe6cc;strokeColor=#d79b00;" vertex="1" parent="1">
          <mxGeometry x="1040" y="1180" width="40" height="20" as="geometry" />
        </mxCell>
        <mxCell id="qYEso5ZYe-UhrBeJMv3y-695" value="2" style="rounded=0;whiteSpace=wrap;html=1;fillColor=#ffe6cc;strokeColor=#d79b00;" vertex="1" parent="1">
          <mxGeometry x="1040" y="1200" width="40" height="20" as="geometry" />
        </mxCell>
        <mxCell id="qYEso5ZYe-UhrBeJMv3y-696" value="1" style="rounded=0;whiteSpace=wrap;html=1;fillColor=#ffe6cc;strokeColor=#d79b00;" vertex="1" parent="1">
          <mxGeometry x="1040" y="1160" width="40" height="20" as="geometry" />
        </mxCell>
        <mxCell id="qYEso5ZYe-UhrBeJMv3y-697" value="1,2,3" style="rounded=0;whiteSpace=wrap;html=1;fillColor=#ffe6cc;strokeColor=#d79b00;" vertex="1" parent="1">
          <mxGeometry x="1100" y="1179.5" width="40" height="20" as="geometry" />
        </mxCell>
        <mxCell id="qYEso5ZYe-UhrBeJMv3y-698" value="2,3" style="rounded=0;whiteSpace=wrap;html=1;fillColor=#ffe6cc;strokeColor=#d79b00;" vertex="1" parent="1">
          <mxGeometry x="1100" y="1199.5" width="40" height="20" as="geometry" />
        </mxCell>
        <mxCell id="qYEso5ZYe-UhrBeJMv3y-699" value="1,3" style="rounded=0;whiteSpace=wrap;html=1;fillColor=#ffe6cc;strokeColor=#d79b00;" vertex="1" parent="1">
          <mxGeometry x="1100" y="1159.5" width="40" height="20" as="geometry" />
        </mxCell>
        <mxCell id="qYEso5ZYe-UhrBeJMv3y-700" value="3" style="rounded=0;whiteSpace=wrap;html=1;fillColor=#ffe6cc;strokeColor=#d79b00;" vertex="1" parent="1">
          <mxGeometry x="1100" y="1219.5" width="40" height="20" as="geometry" />
        </mxCell>
        <mxCell id="qYEso5ZYe-UhrBeJMv3y-701" value="1,2" style="rounded=0;whiteSpace=wrap;html=1;fillColor=#ffe6cc;strokeColor=#d79b00;" vertex="1" parent="1">
          <mxGeometry x="1040" y="1281" width="40" height="20" as="geometry" />
        </mxCell>
        <mxCell id="qYEso5ZYe-UhrBeJMv3y-702" value="2" style="rounded=0;whiteSpace=wrap;html=1;fillColor=#ffe6cc;strokeColor=#d79b00;" vertex="1" parent="1">
          <mxGeometry x="1040" y="1301" width="40" height="20" as="geometry" />
        </mxCell>
        <mxCell id="qYEso5ZYe-UhrBeJMv3y-703" value="1" style="rounded=0;whiteSpace=wrap;html=1;fillColor=#ffe6cc;strokeColor=#d79b00;" vertex="1" parent="1">
          <mxGeometry x="1040" y="1261" width="40" height="20" as="geometry" />
        </mxCell>
        <mxCell id="qYEso5ZYe-UhrBeJMv3y-704" value="1,2,3" style="rounded=0;whiteSpace=wrap;html=1;fillColor=#ffe6cc;strokeColor=#d79b00;" vertex="1" parent="1">
          <mxGeometry x="1040" y="1341" width="40" height="20" as="geometry" />
        </mxCell>
        <mxCell id="qYEso5ZYe-UhrBeJMv3y-705" value="2,3" style="rounded=0;whiteSpace=wrap;html=1;fillColor=#ffe6cc;strokeColor=#d79b00;" vertex="1" parent="1">
          <mxGeometry x="1040" y="1361" width="40" height="20" as="geometry" />
        </mxCell>
        <mxCell id="qYEso5ZYe-UhrBeJMv3y-706" value="1,3" style="rounded=0;whiteSpace=wrap;html=1;fillColor=#ffe6cc;strokeColor=#d79b00;" vertex="1" parent="1">
          <mxGeometry x="1040" y="1321" width="40" height="20" as="geometry" />
        </mxCell>
        <mxCell id="qYEso5ZYe-UhrBeJMv3y-707" value="3" style="rounded=0;whiteSpace=wrap;html=1;fillColor=#ffe6cc;strokeColor=#d79b00;" vertex="1" parent="1">
          <mxGeometry x="1040" y="1381" width="40" height="20" as="geometry" />
        </mxCell>
        <mxCell id="qYEso5ZYe-UhrBeJMv3y-708" value="1,2,4" style="rounded=0;whiteSpace=wrap;html=1;fillColor=#ffe6cc;strokeColor=#d79b00;" vertex="1" parent="1">
          <mxGeometry x="1100" y="1280.5" width="40" height="20" as="geometry" />
        </mxCell>
        <mxCell id="qYEso5ZYe-UhrBeJMv3y-709" value="2,4" style="rounded=0;whiteSpace=wrap;html=1;fillColor=#ffe6cc;strokeColor=#d79b00;" vertex="1" parent="1">
          <mxGeometry x="1100" y="1300.5" width="40" height="20" as="geometry" />
        </mxCell>
        <mxCell id="qYEso5ZYe-UhrBeJMv3y-710" value="1,4" style="rounded=0;whiteSpace=wrap;html=1;fillColor=#ffe6cc;strokeColor=#d79b00;" vertex="1" parent="1">
          <mxGeometry x="1100" y="1260.5" width="40" height="20" as="geometry" />
        </mxCell>
        <mxCell id="qYEso5ZYe-UhrBeJMv3y-711" value="1,2,3,4" style="rounded=0;whiteSpace=wrap;html=1;" vertex="1" parent="1">
          <mxGeometry x="1100" y="1340.5" width="40" height="20" as="geometry" />
        </mxCell>
        <mxCell id="qYEso5ZYe-UhrBeJMv3y-712" value="2,3,4" style="rounded=0;whiteSpace=wrap;html=1;" vertex="1" parent="1">
          <mxGeometry x="1100" y="1360.5" width="40" height="20" as="geometry" />
        </mxCell>
        <mxCell id="qYEso5ZYe-UhrBeJMv3y-713" value="1,3,4" style="rounded=0;whiteSpace=wrap;html=1;" vertex="1" parent="1">
          <mxGeometry x="1100" y="1320.5" width="40" height="20" as="geometry" />
        </mxCell>
        <mxCell id="qYEso5ZYe-UhrBeJMv3y-714" value="3,4" style="rounded=0;whiteSpace=wrap;html=1;fillColor=#ffe6cc;strokeColor=#d79b00;" vertex="1" parent="1">
          <mxGeometry x="1100" y="1380.5" width="40" height="20" as="geometry" />
        </mxCell>
        <mxCell id="qYEso5ZYe-UhrBeJMv3y-715" value="4" style="rounded=0;whiteSpace=wrap;html=1;fillColor=#ffe6cc;strokeColor=#d79b00;" vertex="1" parent="1">
          <mxGeometry x="1100" y="1400.5" width="40" height="20" as="geometry" />
        </mxCell>
        <mxCell id="qYEso5ZYe-UhrBeJMv3y-718" style="edgeStyle=orthogonalEdgeStyle;curved=1;rounded=0;orthogonalLoop=1;jettySize=auto;html=1;entryX=0;entryY=0.5;entryDx=0;entryDy=0;exitX=0;exitY=0.5;exitDx=0;exitDy=0;strokeColor=#6C8EBF;" edge="1" parent="1" source="qYEso5ZYe-UhrBeJMv3y-716" target="qYEso5ZYe-UhrBeJMv3y-717">
          <mxGeometry relative="1" as="geometry" />
        </mxCell>
        <mxCell id="qYEso5ZYe-UhrBeJMv3y-720" value="dp[I][j] = max(&lt;b&gt;&lt;font color=&quot;#cc6600&quot;&gt;dp[i&amp;nbsp;- 1][j]&lt;/font&gt;&lt;/b&gt;, &lt;b&gt;&lt;font color=&quot;#3333ff&quot;&gt;dp[i - 1][j - weight[i]] + value[i]&lt;/font&gt;&lt;/b&gt;)" style="text;html=1;align=center;verticalAlign=middle;resizable=0;points=[];autosize=1;strokeColor=none;fillColor=none;" vertex="1" parent="1">
          <mxGeometry x="30.5" y="840" width="320" height="20" as="geometry" />
        </mxCell>
        <mxCell id="qYEso5ZYe-UhrBeJMv3y-729" value="&lt;font color=&quot;#000000&quot;&gt;dp[3][5]&lt;/font&gt;" style="text;html=1;align=center;verticalAlign=middle;resizable=0;points=[];autosize=1;strokeColor=none;fillColor=none;fontColor=#3333FF;" vertex="1" parent="1">
          <mxGeometry x="680.5" y="1130" width="60" height="20" as="geometry" />
        </mxCell>
        <mxCell id="qYEso5ZYe-UhrBeJMv3y-730" value="&lt;font color=&quot;#000000&quot;&gt;dp[4][5]&lt;/font&gt;" style="text;html=1;align=center;verticalAlign=middle;resizable=0;points=[];autosize=1;strokeColor=none;fillColor=none;fontColor=#3333FF;" vertex="1" parent="1">
          <mxGeometry x="690.5" y="1405" width="60" height="20" as="geometry" />
        </mxCell>
        <mxCell id="qYEso5ZYe-UhrBeJMv3y-731" value="&lt;font color=&quot;#000000&quot;&gt;dp[3][1] + 4 = dp[3][5 - 4] + 4&lt;/font&gt;" style="text;html=1;align=center;verticalAlign=middle;resizable=0;points=[];autosize=1;strokeColor=none;fillColor=none;fontColor=#3333FF;" vertex="1" parent="1">
          <mxGeometry x="70.5" y="1110" width="170" height="20" as="geometry" />
        </mxCell>
        <mxCell id="qYEso5ZYe-UhrBeJMv3y-736" style="edgeStyle=orthogonalEdgeStyle;curved=1;rounded=0;orthogonalLoop=1;jettySize=auto;html=1;fontColor=#000000;strokeColor=#6C8EBF;entryX=0;entryY=0.75;entryDx=0;entryDy=0;" edge="1" parent="1" target="qYEso5ZYe-UhrBeJMv3y-733">
          <mxGeometry relative="1" as="geometry">
            <mxPoint x="800" y="1430" as="sourcePoint" />
            <mxPoint x="130" y="1260" as="targetPoint" />
            <Array as="points">
              <mxPoint x="800" y="1480" />
              <mxPoint x="40" y="1480" />
              <mxPoint x="40" y="1223" />
            </Array>
          </mxGeometry>
        </mxCell>
      </root>
    </mxGraphModel>
  </diagram>
</mxfile>
